<svg width="360" height="628" viewBox="0 0 360 628" fill="none" xmlns="http://www.w3.org/2000/svg">
    <g opacity="0.5">
        <path opacity="0.037037" d="M572.29 134.025C551.361 153.619 551.56 213.333 507.687 232.629C404.969 277.805 427.564 118.028 331.241 122.336C234.919 126.644 310.265 252.953 238.721 301.063C167.178 349.173 154.182 292.964 108.942 308.095C63.7016 323.226 104.097 452.953 20.2326 481.496C-63.6316 510.039 -83.7129 422.541 -124.473 440.467" stroke="#B77922"/>
        <path opacity="0.0740741" d="M576.285 136.765C555.356 156.359 555.555 216.073 511.682 235.368C408.964 280.545 431.559 120.768 335.236 125.076C238.914 129.383 314.26 255.692 242.716 303.802C171.173 351.912 158.177 295.704 112.937 310.834C67.6967 325.965 108.092 455.692 24.2277 484.236C-59.6365 512.779 -79.7177 425.28 -120.478 443.207" stroke="#BA7C23"/>
        <path opacity="0.111111" d="M580.279 139.505C559.35 159.098 559.549 218.812 515.676 238.108C412.958 283.284 435.553 123.508 339.231 127.815C242.908 132.123 318.254 258.432 246.71 306.542C175.167 354.652 162.171 298.443 116.931 313.574C71.6908 328.705 112.086 458.432 28.2219 486.975C-55.6424 515.519 -75.7236 428.02 -116.484 445.946" stroke="#BC7E25"/>
        <path opacity="0.148148" d="M584.274 142.244C563.345 161.838 563.544 221.552 519.671 240.848C416.953 286.024 439.548 126.247 343.226 130.555C246.903 134.863 322.249 261.171 250.706 309.281C179.162 357.391 166.167 301.183 120.926 316.314C75.6859 331.444 116.081 461.172 32.217 489.715C-51.6472 518.258 -71.7285 430.759 -112.488 448.686" stroke="#BE8027"/>
        <path opacity="0.185185" d="M588.268 144.984C567.339 164.578 567.538 224.292 523.665 243.588C420.947 288.764 443.542 128.987 347.22 133.295C250.897 137.603 326.243 263.911 254.7 312.021C183.156 360.131 170.161 303.923 124.92 319.054C79.6801 334.184 120.075 463.912 36.2111 492.455C-47.6531 520.998 -67.7344 433.499 -108.494 451.426" stroke="#C18228"/>
        <path opacity="0.222222" d="M592.263 147.724C571.334 167.317 571.533 227.031 527.66 246.327C424.942 291.503 447.538 131.727 351.215 136.034C254.892 140.342 330.238 266.651 258.695 314.761C187.151 362.871 174.156 306.662 128.915 321.793C83.6752 336.924 124.07 466.651 40.2063 495.194C-43.658 523.738 -63.7392 436.239 -104.499 454.165" stroke="#C3852A"/>
        <path opacity="0.259259" d="M596.257 150.464C575.328 170.057 575.528 229.771 531.655 249.067C428.936 294.243 451.532 134.467 355.209 138.774C258.886 143.082 334.232 269.391 262.689 317.501C191.145 365.611 178.15 309.402 132.91 324.533C87.6693 339.664 128.065 469.391 44.2004 497.934C-39.6638 526.478 -59.7451 438.979 -100.505 456.905" stroke="#C5872C"/>
        <path opacity="0.296296" d="M600.252 153.203C579.324 172.797 579.523 232.511 535.65 251.807C432.931 296.983 455.527 137.206 359.204 141.514C262.882 145.822 338.228 272.13 266.684 320.241C195.141 368.351 182.145 312.142 136.905 327.273C91.6645 342.404 132.06 472.131 48.1955 500.674C-35.6687 529.217 -55.75 441.719 -96.51 459.645" stroke="#C8892D"/>
        <path opacity="0.333333" d="M604.247 155.943C583.318 175.537 583.517 235.251 539.644 254.547C436.926 299.723 459.521 139.946 363.198 144.254C266.876 148.562 342.222 274.87 270.678 322.98C199.135 371.09 186.139 314.882 140.899 330.013C95.6586 345.143 136.054 474.871 52.1897 503.414C-31.6746 531.957 -51.7558 444.458 -92.5158 462.385" stroke="#CA8B2F"/>
        <path opacity="0.37037" d="M608.242 158.683C587.313 178.277 587.512 237.991 543.639 257.286C440.921 302.463 463.516 142.686 367.193 146.994C270.871 151.301 346.217 277.61 274.673 325.72C203.13 373.83 190.134 317.622 144.894 332.752C99.6537 347.883 140.049 477.61 56.1848 506.154C-27.6795 534.697 -47.7607 447.198 -88.5207 465.125" stroke="#CC8E31"/>
        <path opacity="0.407407" d="M612.236 161.423C591.307 181.017 591.506 240.731 547.633 260.026C444.915 305.203 467.51 145.426 371.188 149.734C274.865 154.041 350.211 280.35 278.667 328.46C207.124 376.57 194.128 320.362 148.888 335.492C103.648 350.623 144.043 480.35 60.1789 508.894C-23.6853 537.437 -43.7666 449.938 -84.5266 467.865" stroke="#CF9032"/>
        <path opacity="0.444444" d="M616.231 164.163C595.302 183.756 595.501 243.47 551.628 262.766C448.91 307.942 471.505 148.165 375.183 152.473C278.86 156.781 354.206 283.09 282.663 331.2C211.119 379.31 198.124 323.101 152.883 338.232C107.643 353.363 148.038 483.09 64.174 511.633C-19.6902 540.176 -39.7715 452.678 -80.5315 470.604" stroke="#D19234"/>
        <path opacity="0.481481" d="M620.225 166.902C599.296 186.496 599.495 246.21 555.622 265.506C452.904 310.682 475.499 150.905 379.177 155.213C282.854 159.521 358.2 285.829 286.657 333.94C215.113 382.05 202.118 325.841 156.877 340.972C111.637 356.103 152.032 485.83 68.1682 514.373C-15.6961 542.916 -35.7773 455.418 -76.5373 473.344" stroke="#D39436"/>
        <path opacity="0.518519" d="M624.22 169.642C603.291 189.236 603.49 248.95 559.617 268.245C456.899 313.422 479.495 153.645 383.172 157.953C286.849 162.26 362.195 288.569 290.652 336.679C219.108 384.789 206.113 328.581 160.873 343.711C115.632 358.842 156.028 488.569 72.1633 517.113C-11.701 545.656 -31.7822 458.157 -72.5422 476.084" stroke="#D69737"/>
        <path opacity="0.555556" d="M628.214 172.382C607.285 191.975 607.485 251.689 563.612 270.985C460.893 316.161 483.489 156.384 387.166 160.692C290.843 165 366.189 291.309 294.646 339.419C223.102 387.529 210.107 331.32 164.867 346.451C119.626 361.582 160.022 491.309 76.1574 519.852C-7.70682 548.395 -27.7881 460.897 -68.5481 478.823" stroke="#D89939"/>
        <path opacity="0.592593" d="M632.21 175.121C611.281 194.715 611.48 254.429 567.607 273.725C464.888 318.901 487.484 159.124 391.161 163.432C294.839 167.74 370.185 294.048 298.641 342.159C227.098 390.269 214.102 334.06 168.862 349.191C123.621 364.322 164.017 494.049 80.1525 522.592C-3.7117 551.135 -23.7929 463.636 -64.5529 481.563" stroke="#DA9B3B"/>
        <path opacity="0.62963" d="M636.204 177.861C615.275 197.455 615.474 257.169 571.601 276.465C468.883 321.641 491.478 161.864 395.155 166.172C298.833 170.48 374.179 296.788 302.635 344.899C231.092 393.009 218.096 336.8 172.856 351.931C127.616 367.062 168.011 496.789 84.1467 525.332C0.282441 553.875 -19.7988 466.376 -60.5588 484.303" stroke="#DD9D3C"/>
        <path opacity="0.666667" d="M640.199 180.601C619.27 200.195 619.469 259.909 575.596 279.205C472.878 324.381 495.473 164.604 399.15 168.912C302.828 173.22 378.174 299.528 306.63 347.638C235.087 395.748 222.091 339.54 176.851 354.671C131.611 369.801 172.006 499.529 88.1418 528.072C4.27756 556.615 -15.8037 469.116 -56.5637 487.043" stroke="#DFA03E"/>
        <path opacity="0.703704" d="M644.193 183.341C623.264 202.934 623.463 262.648 579.59 281.944C476.872 327.12 499.467 167.343 403.145 171.651C306.822 175.959 382.168 302.268 310.624 350.378C239.081 398.488 226.085 342.279 180.845 357.41C135.605 372.541 176 502.268 92.1359 530.811C8.2717 559.354 -11.8095 471.856 -52.5695 489.782" stroke="#E1A240"/>
        <path opacity="0.740741" d="M648.188 186.081C627.259 205.674 627.458 265.388 583.585 284.684C480.867 329.86 503.462 170.083 407.14 174.391C310.817 178.699 386.163 305.008 314.62 353.118C243.076 401.228 230.081 345.019 184.84 360.15C139.6 375.281 179.995 505.008 96.1311 533.551C12.2668 562.094 -7.81443 474.596 -48.5744 492.522" stroke="#E4A441"/>
        <path opacity="0.777778" d="M652.182 188.82C631.253 208.414 631.452 268.128 587.579 287.424C484.861 332.6 507.456 172.823 411.134 177.131C314.811 181.439 390.157 307.747 318.614 355.858C247.07 403.968 234.075 347.759 188.834 362.89C143.594 378.021 183.989 507.748 100.125 536.291C16.261 564.834 -3.82029 477.335 -44.5803 495.262" stroke="#E6A643"/>
        <path opacity="0.814815" d="M656.177 191.56C635.248 211.154 635.447 270.868 591.574 290.164C488.856 335.34 511.452 175.563 415.129 179.871C318.806 184.179 394.152 310.487 322.609 358.598C251.065 406.708 238.07 350.499 192.83 365.63C147.589 380.761 187.985 510.488 104.12 539.031C20.2561 567.574 0.174829 480.075 -40.5852 498.002" stroke="#E8A945"/>
        <path opacity="0.851852" d="M660.171 194.3C639.242 213.894 639.442 273.608 595.569 292.904C492.85 338.08 515.446 178.303 419.123 182.611C322.8 186.919 398.146 313.227 326.603 361.337C255.059 409.447 242.064 353.239 196.824 368.369C151.583 383.5 191.979 513.228 108.114 541.771C24.2502 570.314 4.16897 482.815 -36.591 500.742" stroke="#EBAB46"/>
        <path opacity="0.888889" d="M664.167 197.04C643.238 216.633 643.437 276.347 599.564 295.643C496.846 340.819 519.441 181.042 423.118 185.35C326.796 189.658 402.142 315.967 330.598 364.077C259.055 412.187 246.059 355.978 200.819 371.109C155.579 386.24 195.974 515.967 112.11 544.51C28.2453 573.053 8.16409 485.555 -32.5959 503.481" stroke="#EDAD48"/>
        <path opacity="0.925926" d="M668.161 199.779C647.232 219.373 647.431 279.087 603.558 298.383C500.84 343.559 523.435 183.782 427.112 188.09C330.79 192.398 406.136 318.706 334.592 366.816C263.049 414.927 250.053 358.718 204.813 373.849C159.573 388.98 199.968 518.707 116.104 547.25C32.2395 575.793 12.1582 488.294 -28.6018 506.221" stroke="#EFAF4A"/>
        <path opacity="0.962963" d="M672.156 202.519C651.227 222.113 651.426 281.827 607.553 301.123C504.835 346.299 527.43 186.522 431.107 190.83C334.785 195.138 410.131 321.446 338.587 369.556C267.044 417.666 254.048 361.458 208.808 376.588C163.568 391.719 203.963 521.447 120.099 549.99C36.2346 578.533 16.1533 491.034 -24.6067 508.961" stroke="#F2B24B"/>
        <path d="M676.15 205.259C655.221 224.853 655.42 284.567 611.547 303.863C508.829 349.039 531.424 189.262 435.102 193.57C338.779 197.878 414.125 324.186 342.581 372.296C271.038 420.406 258.043 364.198 212.802 379.328C167.562 394.459 207.957 524.187 124.093 552.73C40.2287 581.273 20.1475 493.774 -20.6125 511.701" stroke="#F4B44D"/>
    </g>
</svg>
