<svg width="20" height="21" viewBox="0 0 20 21" fill="none" xmlns="http://www.w3.org/2000/svg">
    <path d="M14.375 5.65625H3.125C3.00068 5.65625 2.88145 5.70564 2.79354 5.79354C2.70564 5.88145 2.65625 6.00068 2.65625 6.125V17.375C2.65625 17.4993 2.70564 17.6185 2.79354 17.7065C2.88145 17.7944 3.00068 17.8438 3.125 17.8438H14.375C14.4993 17.8438 14.6185 17.7944 14.7065 17.7065C14.7944 17.6185 14.8438 17.4993 14.8438 17.375V6.125C14.8438 6.00068 14.7944 5.88145 14.7065 5.79354C14.6185 5.70564 14.4993 5.65625 14.375 5.65625ZM13.9062 16.9062H3.59375V6.59375H13.9062V16.9062ZM17.3438 3.625V14.875C17.3438 14.9993 17.2944 15.1185 17.2065 15.2065C17.1185 15.2944 16.9993 15.3438 16.875 15.3438C16.7507 15.3438 16.6315 15.2944 16.5435 15.2065C16.4556 15.1185 16.4062 14.9993 16.4062 14.875V4.09375H5.625C5.50068 4.09375 5.38145 4.04436 5.29354 3.95646C5.20564 3.86855 5.15625 3.74932 5.15625 3.625C5.15625 3.50068 5.20564 3.38145 5.29354 3.29354C5.38145 3.20564 5.50068 3.15625 5.625 3.15625H16.875C16.9993 3.15625 17.1185 3.20564 17.2065 3.29354C17.2944 3.38145 17.3438 3.50068 17.3438 3.625Z" fill="#F5F5F5"/>
</svg>
