<svg width="42" height="42" viewBox="0 0 42 42" fill="none" xmlns="http://www.w3.org/2000/svg">
    <path d="M0 8C0 3.58172 3.58172 0 8 0H34C38.4183 0 42 3.58172 42 8V34C42 38.4183 38.4183 42 34 42H8C3.58172 42 0 38.4183 0 34V8Z" fill="#F4B44D"/>
    <path d="M24.125 22.875C24.125 23.0408 24.0592 23.1997 23.9419 23.317C23.8247 23.4342 23.6658 23.5 23.5 23.5H18.5C18.3342 23.5 18.1753 23.4342 18.0581 23.317C17.9408 23.1997 17.875 23.0408 17.875 22.875C17.875 22.7092 17.9408 22.5503 18.0581 22.4331C18.1753 22.3159 18.3342 22.25 18.5 22.25H23.5C23.6658 22.25 23.8247 22.3159 23.9419 22.4331C24.0592 22.5503 24.125 22.7092 24.125 22.875ZM23.5 19.75H18.5C18.3342 19.75 18.1753 19.8159 18.0581 19.9331C17.9408 20.0503 17.875 20.2092 17.875 20.375C17.875 20.5408 17.9408 20.6997 18.0581 20.817C18.1753 20.9342 18.3342 21 18.5 21H23.5C23.6658 21 23.8247 20.9342 23.9419 20.817C24.0592 20.6997 24.125 20.5408 24.125 20.375C24.125 20.2092 24.0592 20.0503 23.9419 19.9331C23.8247 19.8159 23.6658 19.75 23.5 19.75ZM27.875 14.75V27.875C27.875 28.2065 27.7433 28.5245 27.5089 28.7589C27.2745 28.9933 26.9565 29.125 26.625 29.125H15.375C15.0435 29.125 14.7255 28.9933 14.4911 28.7589C14.2567 28.5245 14.125 28.2065 14.125 27.875V14.75C14.125 14.4185 14.2567 14.1005 14.4911 13.8661C14.7255 13.6317 15.0435 13.5 15.375 13.5H18.2078C18.559 13.1068 18.9892 12.7922 19.4704 12.5769C19.9516 12.3615 20.4728 12.2501 21 12.2501C21.5272 12.2501 22.0484 12.3615 22.5296 12.5769C23.0108 12.7922 23.441 13.1068 23.7922 13.5H26.625C26.9565 13.5 27.2745 13.6317 27.5089 13.8661C27.7433 14.1005 27.875 14.4185 27.875 14.75ZM18.5 16H23.5C23.5 15.337 23.2366 14.7011 22.7678 14.2322C22.2989 13.7634 21.663 13.5 21 13.5C20.337 13.5 19.7011 13.7634 19.2322 14.2322C18.7634 14.7011 18.5 15.337 18.5 16ZM26.625 14.75H24.5352C24.6773 15.1514 24.75 15.5742 24.75 16V16.625C24.75 16.7908 24.6842 16.9497 24.5669 17.067C24.4497 17.1842 24.2908 17.25 24.125 17.25H17.875C17.7092 17.25 17.5503 17.1842 17.4331 17.067C17.3158 16.9497 17.25 16.7908 17.25 16.625V16C17.25 15.5742 17.3227 15.1514 17.4648 14.75H15.375V27.875H26.625V14.75Z" fill="#231F25"/>
</svg>
