<svg width="168" height="49" viewBox="0 0 168 49" fill="none" xmlns="http://www.w3.org/2000/svg">
    <path d="M4.06698 34.5902L18.6721 43.955C18.7259 43.9896 18.7851 43.9876 18.8389 43.953L33.434 34.5902C33.4804 34.5604 33.5084 34.5093 33.5084 34.4544L33.5205 25.4567C33.5205 25.2312 33.6236 25.0151 33.8144 24.8927L37.5251 22.5353V36.3462C37.5251 36.5716 37.4144 36.7805 37.2236 36.9029L19.1139 48.506C18.8927 48.648 18.6082 48.648 18.3871 48.506L0.293989 36.9042C0.103125 36.7818 0 36.5776 0 36.3522V13.2682C0 13.0427 0.110699 12.8279 0.301562 12.7054L18.3871 1.0903C18.6082 0.948387 18.8972 0.949684 19.1184 1.0916L37.2236 12.7054C37.4144 12.8279 37.5251 13.0367 37.5251 13.2622V16.8601C37.5251 17.0856 37.4144 17.3004 37.2236 17.4228L26.3512 24.3924C26.2429 24.4619 26.1167 24.4989 25.9877 24.4989H18.8168L32.652 15.6149C32.8428 15.4924 32.9536 15.2837 32.9536 15.0581C32.9536 14.8327 32.8428 14.6358 32.652 14.5134L18.853 5.65333C18.7992 5.61884 18.7159 5.60882 18.6621 5.64332L4.06698 15.0182C4.02059 15.048 3.99255 15.0991 3.99255 15.1539V34.4544C3.99255 34.5093 4.02059 34.5604 4.06698 34.5902ZM18.6621 39.9421C18.7159 39.9766 18.7992 39.9905 18.853 39.956L30.1311 32.7124V30.677H18.8168V32.2334H23.509L18.853 35.2267C18.7992 35.2612 18.7259 35.2612 18.6721 35.2267L11.459 30.6051C11.4126 30.5754 11.3866 30.5103 11.3866 30.4554V19.141C11.3866 19.0861 11.4126 19.0331 11.459 19.0033L18.6621 14.3837C18.7159 14.3491 18.7851 14.3491 18.8389 14.3837L24.5222 18.0215C24.576 18.056 24.6493 18.056 24.7031 18.0215L28.0784 15.8404C28.1248 15.8107 28.1529 15.7595 28.1529 15.7047C28.1529 15.6498 28.1248 15.5987 28.0784 15.569L18.853 9.65233C18.7992 9.61783 18.7259 9.61783 18.6721 9.65233L7.45641 16.8381C7.41002 16.8679 7.38197 16.9189 7.38197 16.9738V32.6225C7.38197 32.6774 7.40369 32.7243 7.45007 32.754L18.6621 39.9421Z" fill="#F4B44D"/>
    <path d="M156.053 32.9808L160.528 26.8068L156.152 20.7685H158.9L161.879 24.9636L164.826 20.7685H167.573L163.197 26.8068L167.684 32.9808H164.925L161.879 28.6499L158.811 32.9808H156.053Z" fill="#F4B44D"/>
    <path d="M149.813 31.115C150.573 31.115 151.201 30.9529 151.696 30.6288C152.198 30.2971 152.597 29.8108 152.892 29.1701L155.174 29.8825C154.701 30.9831 154 31.8312 153.069 32.4267C152.146 33.0222 151.061 33.32 149.813 33.32C148.926 33.32 148.121 33.1655 147.398 32.8564C146.681 32.5398 146.065 32.0988 145.548 31.5334C145.031 30.968 144.632 30.2895 144.352 29.498C144.071 28.7065 143.931 27.832 143.931 26.8746C143.931 25.9022 144.071 25.0202 144.352 24.2286C144.632 23.4371 145.031 22.7586 145.548 22.1932C146.065 21.6278 146.681 21.1944 147.398 20.8928C148.121 20.5838 148.919 20.4292 149.79 20.4292C150.721 20.4292 151.544 20.5951 152.261 20.9268C152.977 21.2585 153.571 21.7334 154.044 22.3515C154.524 22.9622 154.871 23.7085 155.085 24.5905C155.307 25.4649 155.388 26.4487 155.329 27.5418H146.423C146.526 28.6801 146.873 29.5621 147.464 30.1878C148.055 30.8059 148.838 31.115 149.813 31.115ZM152.947 25.6986C152.866 24.6885 152.552 23.912 152.006 23.3692C151.459 22.8265 150.721 22.5551 149.79 22.5551C148.867 22.5551 148.121 22.8265 147.553 23.3692C146.992 23.912 146.633 24.6885 146.478 25.6986H152.947Z" fill="#F4B44D"/>
    <path d="M139.832 30.6288C139.648 31.0509 139.393 31.4278 139.068 31.7595C138.743 32.0912 138.367 32.3739 137.938 32.6076C137.51 32.8413 137.034 33.0185 136.509 33.1391C135.992 33.2597 135.439 33.32 134.848 33.32C133.748 33.32 132.747 33.1278 131.846 32.7433C130.952 32.3588 130.188 31.8048 129.553 31.0811C128.918 30.3498 128.427 29.4603 128.08 28.4125C127.74 27.3646 127.57 26.1735 127.57 24.8392C127.57 23.5577 127.748 22.3968 128.102 21.3565C128.456 20.3162 128.959 19.4266 129.608 18.6878C130.266 17.9491 131.052 17.3799 131.968 16.9804C132.884 16.5733 133.899 16.3698 135.014 16.3698C136.749 16.3698 138.189 16.7844 139.334 17.6136C140.479 18.4428 141.306 19.7018 141.815 21.3904L139.456 21.8201C139.316 21.3075 139.109 20.8514 138.836 20.4518C138.562 20.0523 138.237 19.7168 137.861 19.4455C137.492 19.1741 137.071 18.9668 136.598 18.8235C136.133 18.6803 135.627 18.6087 135.08 18.6087C134.283 18.6087 133.57 18.7482 132.943 19.0271C132.322 19.306 131.794 19.7131 131.359 20.2483C130.93 20.7835 130.602 21.4432 130.373 22.2272C130.144 23.0036 130.029 23.8894 130.029 24.8845C130.029 25.8569 130.136 26.7276 130.351 27.4965C130.572 28.2655 130.893 28.9138 131.314 29.4415C131.743 29.9692 132.271 30.3725 132.898 30.6514C133.526 30.9303 134.246 31.0698 135.058 31.0698C135.752 31.0698 136.376 30.968 136.93 30.7645C137.492 30.5609 137.968 30.2632 138.359 29.8712C138.751 29.4716 139.057 28.9854 139.279 28.4125C139.5 27.832 139.622 27.1686 139.644 26.4223H134.139V24.1947H142.159V32.9808H139.832V30.6288Z" fill="#F4B44D"/>
    <path d="M115.716 33.32C114.823 33.32 114.014 33.1617 113.29 32.8451C112.574 32.5285 111.961 32.0875 111.452 31.5221C110.942 30.9492 110.547 30.2669 110.266 29.4754C109.993 28.6838 109.856 27.8132 109.856 26.8633C109.856 25.9135 109.993 25.0428 110.266 24.2512C110.547 23.4597 110.942 22.7812 111.452 22.2158C111.968 21.6505 112.585 21.2132 113.301 20.9042C114.025 20.5875 114.83 20.4292 115.716 20.4292C116.61 20.4292 117.418 20.5875 118.142 20.9042C118.866 21.2132 119.482 21.6542 119.992 22.2272C120.501 22.7925 120.893 23.471 121.166 24.2625C121.447 25.0465 121.587 25.9135 121.587 26.8633C121.587 27.8207 121.447 28.6952 121.166 29.4867C120.893 30.2782 120.501 30.9605 119.992 31.5334C119.482 32.0988 118.866 32.5398 118.142 32.8564C117.418 33.1655 116.61 33.32 115.716 33.32ZM115.716 31.0924C116.27 31.0924 116.757 30.9944 117.178 30.7984C117.607 30.6024 117.965 30.3235 118.253 29.9616C118.541 29.5922 118.759 29.1475 118.906 28.6273C119.054 28.0996 119.128 27.5116 119.128 26.8633C119.128 26.2075 119.054 25.6195 118.906 25.0993C118.759 24.5792 118.541 24.1382 118.253 23.7763C117.965 23.4145 117.607 23.1393 117.178 22.9508C116.757 22.7548 116.27 22.6568 115.716 22.6568C115.155 22.6568 114.66 22.7548 114.232 22.9508C113.811 23.1468 113.456 23.4258 113.168 23.7876C112.888 24.1495 112.674 24.5905 112.526 25.1106C112.386 25.6308 112.316 26.215 112.316 26.8633C112.316 27.5192 112.389 28.1109 112.537 28.6386C112.685 29.1588 112.903 29.5998 113.191 29.9616C113.479 30.3235 113.833 30.6024 114.254 30.7984C114.682 30.9944 115.17 31.0924 115.716 31.0924Z" fill="#F5F5F5"/>
    <path d="M100.148 20.7685H102.441V16.6977H104.768V20.7685H108.323V22.9848H104.768V29.1475C104.768 29.7581 104.893 30.1953 105.144 30.4592C105.403 30.723 105.827 30.8549 106.418 30.8549H108.323V32.9808H105.908C105.369 32.9808 104.882 32.9054 104.446 32.7546C104.018 32.6038 103.656 32.389 103.361 32.1101C103.065 31.8236 102.836 31.4768 102.674 31.0698C102.519 30.6627 102.441 30.1991 102.441 29.6789V22.9848H100.148V20.7685Z" fill="#F5F5F5"/>
    <path d="M87.459 38.4085V20.7685H89.7741V22.5438C90.1507 21.8804 90.6491 21.364 91.2694 20.9946C91.8971 20.6177 92.6799 20.4292 93.6178 20.4292C94.4227 20.4292 95.1574 20.5875 95.8221 20.9042C96.4941 21.2208 97.0664 21.6655 97.539 22.2385C98.019 22.8038 98.3882 23.4823 98.6467 24.2738C98.9125 25.0578 99.0454 25.921 99.0454 26.8633C99.0454 27.8207 98.9125 28.6952 98.6467 29.4867C98.3808 30.2782 98.0079 30.9605 97.5279 31.5334C97.0553 32.0988 96.4867 32.5398 95.8221 32.8564C95.1574 33.1655 94.4227 33.32 93.6178 33.32C92.6799 33.32 91.8971 33.1353 91.2694 32.7659C90.6418 32.389 90.1433 31.8688 89.7741 31.2055V38.4085H87.459ZM93.1747 31.0924C93.7433 31.0924 94.2418 30.9906 94.6701 30.7871C95.0984 30.576 95.4528 30.2858 95.7334 29.9164C96.0214 29.5395 96.2356 29.0947 96.3759 28.5821C96.5162 28.0619 96.5864 27.489 96.5864 26.8633C96.5864 26.2225 96.5125 25.6458 96.3648 25.1332C96.2245 24.6131 96.0104 24.1721 95.7224 23.8102C95.4418 23.4408 95.0873 23.1582 94.659 22.9622C94.2381 22.7586 93.7433 22.6568 93.1747 22.6568C92.5913 22.6568 92.0854 22.7586 91.6571 22.9622C91.2362 23.1657 90.8854 23.4559 90.6048 23.8328C90.3242 24.2022 90.1138 24.6432 89.9734 25.1558C89.8405 25.6685 89.7741 26.2376 89.7741 26.8633C89.7741 27.5041 89.8442 28.0883 89.9845 28.616C90.1322 29.1362 90.3464 29.5809 90.627 29.9503C90.915 30.3122 91.2694 30.5948 91.6904 30.7984C92.1187 30.9944 92.6134 31.0924 93.1747 31.0924Z" fill="#F5F5F5"/>
    <path d="M76.9168 38.4085L78.8885 32.9242L74.0479 20.7685H76.4626L80.0072 29.939L83.3746 20.7685H85.7229L79.1211 38.4085H76.9168Z" fill="#F5F5F5"/>
    <path d="M73.1899 22.736C72.9093 22.6832 72.5512 22.6568 72.1155 22.6568C71.6429 22.6568 71.2182 22.7322 70.8416 22.883C70.465 23.0338 70.1438 23.2599 69.8779 23.5615C69.6121 23.8555 69.409 24.2286 69.2687 24.6809C69.1284 25.1332 69.0582 25.6609 69.0582 26.264V32.9808H66.7432V20.7685H69.0582V22.4533C69.2059 22.1744 69.3832 21.9143 69.5899 21.6731C69.8041 21.4243 70.0552 21.2095 70.3432 21.0285C70.6386 20.8401 70.9782 20.6931 71.3622 20.5875C71.7536 20.482 72.193 20.4292 72.6804 20.4292C72.7616 20.4292 72.8465 20.433 72.9352 20.4405C73.0238 20.4405 73.1087 20.4443 73.1899 20.4518V22.736Z" fill="#F5F5F5"/>
    <path d="M57.2289 33.32C56.0326 33.32 54.9655 33.1165 54.0277 32.7094C53.0972 32.2948 52.3071 31.7143 51.6572 30.968C51.0148 30.2217 50.5237 29.3284 50.184 28.2881C49.8517 27.2478 49.6855 26.0982 49.6855 24.8392C49.6855 23.5803 49.8517 22.4307 50.184 21.3904C50.5237 20.3501 51.0148 19.4568 51.6572 18.7105C52.3071 17.9642 53.0972 17.3875 54.0277 16.9804C54.9655 16.5658 56.0326 16.3585 57.2289 16.3585C58.152 16.3585 58.9939 16.4828 59.7545 16.7316C60.5225 16.9728 61.2055 17.3234 61.8037 17.7832C62.4019 18.2431 62.9114 18.7972 63.3323 19.4455C63.7532 20.0862 64.0819 20.8099 64.3182 21.6165L61.9699 22.2611C61.6523 21.1228 61.0985 20.2295 60.3083 19.5812C59.5182 18.9328 58.4917 18.6087 57.2289 18.6087C56.4019 18.6087 55.6708 18.7595 55.0357 19.061C54.4006 19.355 53.8652 19.7772 53.4295 20.3275C53.0012 20.8702 52.6763 21.5261 52.4548 22.295C52.2406 23.0564 52.1335 23.9045 52.1335 24.8392C52.1335 25.774 52.2406 26.6258 52.4548 27.3948C52.6689 28.1562 52.9865 28.812 53.4074 29.3623C53.8357 29.9051 54.3674 30.3272 55.0025 30.6288C55.6375 30.9228 56.3797 31.0698 57.2289 31.0698C58.4917 31.0698 59.5182 30.7456 60.3083 30.0973C61.0985 29.449 61.6523 28.5557 61.9699 27.4174L64.3182 28.0619C64.0819 28.861 63.7532 29.5847 63.3323 30.233C62.9114 30.8813 62.4019 31.4354 61.8037 31.8952C61.2055 32.3551 60.5225 32.7094 59.7545 32.9582C58.9939 33.1994 58.152 33.32 57.2289 33.32Z" fill="#F5F5F5"/>
</svg>
