<svg width="76" height="15" viewBox="0 0 76 15" fill="none" xmlns="http://www.w3.org/2000/svg">
    <path d="M5.62352 11.21C4.86752 11.21 4.19319 11.084 3.60052 10.832C3.01252 10.5753 2.51319 10.216 2.10252 9.754C1.69652 9.292 1.38619 8.739 1.17152 8.095C0.961523 7.451 0.856523 6.73933 0.856523 5.96C0.856523 5.18067 0.961523 4.469 1.17152 3.825C1.38619 3.181 1.69652 2.628 2.10252 2.166C2.51319 1.704 3.01252 1.347 3.60052 1.095C4.19319 0.838333 4.86752 0.71 5.62352 0.71C6.20686 0.71 6.73886 0.787 7.21952 0.941C7.70486 1.09033 8.13652 1.30733 8.51452 1.592C8.89252 1.87667 9.21452 2.21967 9.48052 2.621C9.74652 3.01767 9.95419 3.46567 10.1035 3.965L8.61952 4.364C8.41886 3.65933 8.06886 3.10633 7.56952 2.705C7.07019 2.30367 6.42152 2.103 5.62352 2.103C5.10086 2.103 4.63886 2.19633 4.23752 2.383C3.83619 2.565 3.49786 2.82633 3.22252 3.167C2.95186 3.503 2.74652 3.909 2.60652 4.385C2.47119 4.85633 2.40352 5.38133 2.40352 5.96C2.40352 6.53867 2.47119 7.066 2.60652 7.542C2.74186 8.01333 2.94252 8.41933 3.20852 8.76C3.47919 9.096 3.81519 9.35733 4.21652 9.544C4.61786 9.726 5.08686 9.817 5.62352 9.817C6.42152 9.817 7.07019 9.61633 7.56952 9.215C8.06886 8.81367 8.41886 8.26067 8.61952 7.556L10.1035 7.955C9.95419 8.44967 9.74652 8.89767 9.48052 9.299C9.21452 9.70033 8.89252 10.0433 8.51452 10.328C8.13652 10.6127 7.70486 10.832 7.21952 10.986C6.73886 11.1353 6.20686 11.21 5.62352 11.21ZM15.7101 4.658C15.5328 4.62533 15.3064 4.609 15.0311 4.609C14.7324 4.609 14.4641 4.65567 14.2261 4.749C13.9881 4.84233 13.7851 4.98233 13.6171 5.169C13.4491 5.351 13.3208 5.582 13.2321 5.862C13.1434 6.142 13.0991 6.46867 13.0991 6.842V11H11.6361V3.44H13.0991V4.483C13.1924 4.31033 13.3044 4.14933 13.4351 4C13.5704 3.846 13.7291 3.713 13.9111 3.601C14.0978 3.48433 14.3124 3.39333 14.5551 3.328C14.8024 3.26267 15.0801 3.23 15.3881 3.23C15.4394 3.23 15.4931 3.23233 15.5491 3.237C15.6051 3.237 15.6588 3.23933 15.7101 3.244V4.658ZM18.0655 14.36L19.3115 10.965L16.2525 3.44H17.7785L20.0185 9.117L22.1465 3.44H23.6305L19.4585 14.36H18.0655ZM24.7271 14.36V3.44H26.1901V4.539C26.4281 4.12833 26.7431 3.80867 27.1351 3.58C27.5317 3.34667 28.0264 3.23 28.6191 3.23C29.1277 3.23 29.5921 3.328 30.0121 3.524C30.4367 3.72 30.7984 3.99533 31.0971 4.35C31.4004 4.7 31.6337 5.12 31.7971 5.61C31.9651 6.09533 32.0491 6.62967 32.0491 7.213C32.0491 7.80567 31.9651 8.347 31.7971 8.837C31.6291 9.327 31.3934 9.74933 31.0901 10.104C30.7914 10.454 30.4321 10.727 30.0121 10.923C29.5921 11.1143 29.1277 11.21 28.6191 11.21C28.0264 11.21 27.5317 11.0957 27.1351 10.867C26.7384 10.6337 26.4234 10.3117 26.1901 9.901V14.36H24.7271ZM28.3391 9.831C28.6984 9.831 29.0134 9.768 29.2841 9.642C29.5547 9.51133 29.7787 9.33167 29.9561 9.103C30.1381 8.86967 30.2734 8.59433 30.3621 8.277C30.4507 7.955 30.4951 7.60033 30.4951 7.213C30.4951 6.81633 30.4484 6.45933 30.3551 6.142C30.2664 5.82 30.1311 5.547 29.9491 5.323C29.7717 5.09433 29.5477 4.91933 29.2771 4.798C29.0111 4.672 28.6984 4.609 28.3391 4.609C27.9704 4.609 27.6507 4.672 27.3801 4.798C27.1141 4.924 26.8924 5.10367 26.7151 5.337C26.5377 5.56567 26.4047 5.83867 26.3161 6.156C26.2321 6.47333 26.1901 6.82567 26.1901 7.213C26.1901 7.60967 26.2344 7.97133 26.3231 8.298C26.4164 8.62 26.5517 8.89533 26.7291 9.124C26.9111 9.348 27.1351 9.523 27.4011 9.649C27.6717 9.77033 27.9844 9.831 28.3391 9.831ZM32.7464 3.44H34.1954V0.92H35.6654V3.44H37.9124V4.812H35.6654V8.627C35.6654 9.005 35.7448 9.27567 35.9034 9.439C36.0668 9.60233 36.3351 9.684 36.7084 9.684H37.9124V11H36.3864C36.0458 11 35.7378 10.9533 35.4624 10.86C35.1918 10.7667 34.9631 10.6337 34.7764 10.461C34.5898 10.2837 34.4451 10.069 34.3424 9.817C34.2444 9.565 34.1954 9.278 34.1954 8.956V4.812H32.7464V3.44ZM42.5843 11.21C42.0196 11.21 41.5086 11.112 41.0513 10.916C40.5986 10.72 40.2113 10.447 39.8893 10.097C39.5673 9.74233 39.3176 9.32 39.1403 8.83C38.9676 8.34 38.8813 7.801 38.8813 7.213C38.8813 6.625 38.9676 6.086 39.1403 5.596C39.3176 5.106 39.5673 4.686 39.8893 4.336C40.216 3.986 40.6056 3.71533 41.0583 3.524C41.5156 3.328 42.0243 3.23 42.5843 3.23C43.149 3.23 43.66 3.328 44.1173 3.524C44.5746 3.71533 44.9643 3.98833 45.2863 4.343C45.6083 4.693 45.8556 5.113 46.0283 5.603C46.2056 6.08833 46.2943 6.625 46.2943 7.213C46.2943 7.80567 46.2056 8.347 46.0283 8.837C45.8556 9.327 45.6083 9.74933 45.2863 10.104C44.9643 10.454 44.5746 10.727 44.1173 10.923C43.66 11.1143 43.149 11.21 42.5843 11.21ZM42.5843 9.831C42.9343 9.831 43.2423 9.77033 43.5083 9.649C43.779 9.52767 44.0053 9.355 44.1873 9.131C44.3693 8.90233 44.507 8.627 44.6003 8.305C44.6936 7.97833 44.7403 7.61433 44.7403 7.213C44.7403 6.807 44.6936 6.443 44.6003 6.121C44.507 5.799 44.3693 5.526 44.1873 5.302C44.0053 5.078 43.779 4.90767 43.5083 4.791C43.2423 4.66967 42.9343 4.609 42.5843 4.609C42.2296 4.609 41.917 4.66967 41.6463 4.791C41.3803 4.91233 41.1563 5.085 40.9743 5.309C40.797 5.533 40.6616 5.806 40.5683 6.128C40.4796 6.45 40.4353 6.81167 40.4353 7.213C40.4353 7.619 40.482 7.98533 40.5753 8.312C40.6686 8.634 40.8063 8.907 40.9883 9.131C41.1703 9.355 41.3943 9.52767 41.6603 9.649C41.931 9.77033 42.239 9.831 42.5843 9.831Z" fill="#F5F5F5"/>
    <path d="M57.8243 9.544C57.7076 9.80533 57.5466 10.0387 57.3413 10.244C57.1359 10.4493 56.8979 10.6243 56.6273 10.769C56.3566 10.9137 56.0556 11.0233 55.7243 11.098C55.3976 11.1727 55.0476 11.21 54.6743 11.21C53.9789 11.21 53.3466 11.091 52.7773 10.853C52.2126 10.615 51.7296 10.272 51.3283 9.824C50.9269 9.37133 50.6166 8.82067 50.3973 8.172C50.1826 7.52333 50.0753 6.786 50.0753 5.96C50.0753 5.16667 50.1873 4.448 50.4113 3.804C50.6353 3.16 50.9526 2.60933 51.3633 2.152C51.7786 1.69467 52.2756 1.34233 52.8543 1.095C53.4329 0.842999 54.0746 0.716999 54.7793 0.716999C55.8759 0.716999 56.7859 0.973666 57.5093 1.487C58.2326 2.00033 58.7553 2.77967 59.0773 3.825L57.5863 4.091C57.4976 3.77367 57.3669 3.49133 57.1943 3.244C57.0216 2.99667 56.8163 2.789 56.5783 2.621C56.3449 2.453 56.0789 2.32467 55.7803 2.236C55.4863 2.14733 55.1666 2.103 54.8213 2.103C54.3173 2.103 53.8669 2.18933 53.4703 2.362C53.0783 2.53467 52.7446 2.78667 52.4693 3.118C52.1986 3.44933 51.9909 3.85767 51.8463 4.343C51.7016 4.82367 51.6293 5.372 51.6293 5.988C51.6293 6.59 51.6969 7.129 51.8323 7.605C51.9723 8.081 52.1753 8.48233 52.4413 8.809C52.7119 9.13567 53.0456 9.38533 53.4423 9.558C53.8389 9.73067 54.2939 9.817 54.8073 9.817C55.2459 9.817 55.6403 9.754 55.9903 9.628C56.3449 9.502 56.6459 9.31767 56.8933 9.075C57.1406 8.82767 57.3343 8.52667 57.4743 8.172C57.6143 7.81267 57.6913 7.402 57.7053 6.94H54.2263V5.561H59.2943V11H57.8243V9.544ZM64.1315 9.845C64.6122 9.845 65.0088 9.74467 65.3215 9.544C65.6388 9.33867 65.8908 9.03767 66.0775 8.641L67.5195 9.082C67.2208 9.76333 66.7775 10.2883 66.1895 10.657C65.6062 11.0257 64.9202 11.21 64.1315 11.21C63.5715 11.21 63.0628 11.1143 62.6055 10.923C62.1528 10.727 61.7632 10.454 61.4365 10.104C61.1098 9.754 60.8578 9.334 60.6805 8.844C60.5032 8.354 60.4145 7.81267 60.4145 7.22C60.4145 6.618 60.5032 6.072 60.6805 5.582C60.8578 5.092 61.1098 4.672 61.4365 4.322C61.7632 3.972 62.1528 3.70367 62.6055 3.517C63.0628 3.32567 63.5668 3.23 64.1175 3.23C64.7055 3.23 65.2258 3.33267 65.6785 3.538C66.1312 3.74333 66.5068 4.03733 66.8055 4.42C67.1088 4.798 67.3282 5.26 67.4635 5.806C67.6035 6.34733 67.6548 6.95633 67.6175 7.633H61.9895C62.0548 8.33767 62.2742 8.88367 62.6475 9.271C63.0208 9.65367 63.5155 9.845 64.1315 9.845ZM66.1125 6.492C66.0612 5.86667 65.8628 5.386 65.5175 5.05C65.1722 4.714 64.7055 4.546 64.1175 4.546C63.5342 4.546 63.0628 4.714 62.7035 5.05C62.3488 5.386 62.1225 5.86667 62.0245 6.492H66.1125ZM68.0746 11L70.9026 7.178L68.1376 3.44H69.8736L71.7566 6.037L73.6186 3.44H75.3546L72.5896 7.178L75.4246 11H73.6816L71.7566 8.319L69.8176 11H68.0746Z" fill="#F4B44D"/>
</svg>
