<svg width="360" height="465" viewBox="0 0 360 465" fill="none" xmlns="http://www.w3.org/2000/svg">
    <g clip-path="url(#clip0_480_844)">
        <g opacity="0.5">
            <path opacity="0.037037" d="M519.29 28.1521C498.361 47.7458 498.56 107.46 454.687 126.756C351.969 171.932 374.564 12.155 278.241 16.4628C181.919 20.7707 257.265 147.079 185.721 195.189C114.178 243.299 101.182 187.091 55.9419 202.222C10.7016 217.352 51.0969 347.08 -32.7674 375.623C-116.632 404.166 -136.713 316.667 -177.473 334.594" stroke="#B77922"/>
            <path opacity="0.0740741" d="M523.285 30.8916C502.356 50.4853 502.555 110.199 458.682 129.495C355.964 174.671 378.559 14.8945 282.236 19.2023C185.914 23.5102 261.26 149.819 189.716 197.929C118.173 246.039 105.177 189.83 59.937 204.961C14.6967 220.092 55.092 349.819 -28.7723 378.362C-112.637 406.905 -132.718 319.407 -173.478 337.333" stroke="#BA7C23"/>
            <path opacity="0.111111" d="M527.279 33.6314C506.35 53.2251 506.549 112.939 462.676 132.235C359.958 177.411 382.553 17.6342 286.231 21.9421C189.908 26.2499 265.254 152.558 193.71 200.669C122.167 248.779 109.171 192.57 63.9311 207.701C18.6908 222.832 59.0861 352.559 -24.7781 381.102C-108.642 409.645 -128.724 322.147 -169.484 340.073" stroke="#BC7E25"/>
            <path opacity="0.148148" d="M531.274 36.3709C510.345 55.9646 510.544 115.679 466.671 134.974C363.953 180.151 386.548 20.3737 290.226 24.6816C193.903 28.9894 269.249 155.298 197.706 203.408C126.162 251.518 113.167 195.31 67.9262 210.44C22.6859 225.571 63.0812 355.298 -20.783 383.842C-104.647 412.385 -124.728 324.886 -165.488 342.813" stroke="#BE8027"/>
            <path opacity="0.185185" d="M535.268 39.1109C514.339 58.7046 514.538 118.419 470.665 137.714C367.947 182.891 390.542 23.1137 294.22 27.4216C197.897 31.7294 273.243 158.038 201.7 206.148C130.156 254.258 117.161 198.05 71.9204 213.18C26.6801 228.311 67.0754 358.038 -16.7889 386.582C-100.653 415.125 -120.734 327.626 -161.494 345.553" stroke="#C18228"/>
            <path opacity="0.222222" d="M539.263 41.8504C518.334 61.4441 518.533 121.158 474.66 140.454C371.942 185.63 394.538 25.8532 298.215 30.1611C201.892 34.4689 277.238 160.777 205.695 208.888C134.151 256.998 121.156 200.789 75.9155 215.92C30.6752 231.051 71.0705 360.778 -12.7937 389.321C-96.658 417.864 -116.739 330.366 -157.499 348.292" stroke="#C3852A"/>
            <path opacity="0.259259" d="M543.257 44.5904C522.328 64.1841 522.528 123.898 478.655 143.194C375.936 188.37 398.532 28.5932 302.209 32.9011C205.886 37.2089 281.232 163.517 209.689 211.628C138.145 259.738 125.15 203.529 79.9096 218.66C34.6693 233.791 75.0646 363.518 -8.79961 392.061C-92.6638 420.604 -112.745 333.105 -153.505 351.032" stroke="#C5872C"/>
            <path opacity="0.296296" d="M547.252 47.3301C526.324 66.9238 526.523 126.638 482.65 145.934C379.931 191.11 402.527 31.333 306.204 35.6408C209.882 39.9487 285.228 166.257 213.684 214.367C142.141 262.477 129.145 206.269 83.9048 221.4C38.6645 236.53 79.0598 366.258 -4.80449 394.801C-88.6687 423.344 -108.75 335.845 -149.51 353.772" stroke="#C8892D"/>
            <path opacity="0.333333" d="M551.247 50.0699C530.318 69.6636 530.517 129.378 486.644 148.673C383.926 193.85 406.521 34.0727 310.198 38.3806C213.876 42.6884 289.222 168.997 217.678 217.107C146.135 265.217 133.139 209.008 87.8989 224.139C42.6586 239.27 83.0539 368.997 -0.810349 397.541C-84.6746 426.084 -104.756 338.585 -145.516 356.512" stroke="#CA8B2F"/>
            <path opacity="0.37037" d="M555.242 52.8096C534.313 72.4033 534.512 132.117 490.639 151.413C387.921 196.589 410.516 36.8124 314.193 41.1203C217.871 45.4282 293.217 171.737 221.673 219.847C150.13 267.957 137.134 211.748 91.894 226.879C46.6537 242.01 87.049 371.737 3.18477 400.28C-80.6795 428.823 -100.761 341.325 -141.521 359.251" stroke="#CC8E31"/>
            <path opacity="0.407407" d="M559.236 55.5496C538.307 75.1433 538.506 134.857 494.633 154.153C391.915 199.329 414.51 39.5524 318.188 43.8603C221.865 48.1681 297.211 174.477 225.667 222.587C154.124 270.697 141.128 214.488 95.8882 229.619C50.6479 244.75 91.0431 374.477 7.17891 403.02C-76.6853 431.563 -96.7666 344.065 -137.527 361.991" stroke="#CF9032"/>
            <path opacity="0.444444" d="M563.231 58.2893C542.302 77.883 542.501 137.597 498.628 156.893C395.91 202.069 418.505 42.2922 322.183 46.6C225.86 50.9079 301.206 177.216 229.663 225.327C158.119 273.437 145.124 217.228 99.8833 232.359C54.643 247.49 95.0383 377.217 11.174 405.76C-72.6902 434.303 -92.7715 346.804 -133.531 364.731" stroke="#D19234"/>
            <path opacity="0.481481" d="M567.225 61.0291C546.296 80.6228 546.495 140.337 502.622 159.633C399.904 204.809 422.499 45.0319 326.177 49.3398C229.854 53.6476 305.2 179.956 233.657 228.066C162.113 276.176 149.118 219.968 103.877 235.099C58.6371 250.229 99.0324 379.957 15.1682 408.5C-68.6961 437.043 -88.7773 349.544 -129.537 367.471" stroke="#D39436"/>
            <path opacity="0.518519" d="M571.22 63.7686C550.291 83.3623 550.49 143.076 506.617 162.372C403.899 207.548 426.495 47.7714 330.172 52.0793C233.849 56.3871 309.195 182.696 237.652 230.806C166.108 278.916 153.113 222.707 107.873 237.838C62.6322 252.969 103.028 382.696 19.1633 411.239C-64.701 439.782 -84.7822 352.284 -125.542 370.21" stroke="#D69737"/>
            <path opacity="0.555556" d="M575.214 66.5083C554.285 86.102 554.485 145.816 510.612 165.112C407.893 210.288 430.489 50.5112 334.166 54.819C237.843 59.1269 313.189 185.435 241.646 233.545C170.102 281.656 157.107 225.447 111.867 240.578C66.6264 255.709 107.022 385.436 23.1574 413.979C-60.7068 442.522 -80.7881 355.023 -121.548 372.95" stroke="#D89939"/>
            <path opacity="0.592593" d="M579.21 69.2481C558.281 88.8418 558.48 148.556 514.607 167.852C411.888 213.028 434.484 53.2509 338.161 57.5588C241.839 61.8666 317.185 188.175 245.641 236.285C174.098 284.395 161.102 228.187 115.862 243.317C70.6215 258.448 111.017 388.176 27.1525 416.719C-56.7117 445.262 -76.7929 357.763 -117.553 375.69" stroke="#DA9B3B"/>
            <path opacity="0.62963" d="M583.204 71.9881C562.275 91.5818 562.474 151.296 518.601 170.592C415.883 215.768 438.478 55.9909 342.155 60.2988C245.833 64.6066 321.179 190.915 249.635 239.025C178.092 287.135 165.096 230.927 119.856 246.057C74.6156 261.188 115.011 390.916 31.1467 419.459C-52.7176 448.002 -72.7988 360.503 -113.559 378.43" stroke="#DD9D3C"/>
            <path opacity="0.666667" d="M587.199 74.7278C566.27 94.3215 566.469 154.036 522.596 173.331C419.878 218.508 442.473 58.7307 346.15 63.0385C249.828 67.3464 325.174 193.655 253.63 241.765C182.087 289.875 169.091 233.666 123.851 248.797C78.6107 263.928 119.006 393.655 35.1418 422.198C-48.7224 450.742 -68.8037 363.243 -109.564 381.17" stroke="#DFA03E"/>
            <path opacity="0.703704" d="M591.193 77.4673C570.264 97.061 570.463 156.775 526.59 176.071C423.872 221.247 446.467 61.4702 350.145 65.778C253.822 70.0859 329.168 196.394 257.624 244.504C186.081 292.615 173.085 236.406 127.845 251.537C82.6049 266.668 123 396.395 39.1359 424.938C-44.7283 453.481 -64.8095 365.982 -105.57 383.909" stroke="#E1A240"/>
            <path opacity="0.740741" d="M595.188 80.2073C574.259 99.801 574.458 159.515 530.585 178.811C427.867 223.987 450.462 64.2102 354.14 68.518C257.817 72.8259 333.163 199.134 261.62 247.244C190.076 295.355 177.081 239.146 131.84 254.277C86.6 269.408 126.995 399.135 43.1311 427.678C-40.7332 456.221 -60.8144 368.722 -101.574 386.649" stroke="#E4A441"/>
            <path opacity="0.777778" d="M599.182 82.9471C578.253 102.541 578.452 162.255 534.579 181.551C431.861 226.727 454.456 66.9499 358.134 71.2578C261.811 75.5656 337.157 201.874 265.614 249.984C194.07 298.094 181.075 241.886 135.834 257.016C90.5941 272.147 130.989 401.874 47.1252 430.418C-36.739 458.961 -56.8203 371.462 -97.5803 389.389" stroke="#E6A643"/>
            <path opacity="0.814815" d="M603.177 85.6871C582.248 105.281 582.447 164.995 538.574 184.291C435.856 229.467 458.452 69.6899 362.129 73.9977C265.806 78.3056 341.152 204.614 269.609 252.724C198.065 300.834 185.07 244.626 139.83 259.756C94.5893 274.887 134.985 404.614 51.1203 433.158C-32.7439 461.701 -52.8252 374.202 -93.5852 392.129" stroke="#E8A945"/>
            <path opacity="0.851852" d="M607.171 88.4268C586.242 108.02 586.442 167.735 542.569 187.03C439.85 232.207 462.446 72.4296 366.123 76.7375C269.8 81.0453 345.146 207.354 273.603 255.464C202.059 303.574 189.064 247.365 143.824 262.496C98.5834 277.627 138.979 407.354 55.1145 435.897C-28.7498 464.441 -48.831 376.942 -89.591 394.868" stroke="#EBAB46"/>
            <path opacity="0.888889" d="M611.167 91.1663C590.238 110.76 590.437 170.474 546.564 189.77C443.846 234.946 466.441 75.1691 370.118 79.477C273.796 83.7848 349.142 210.093 277.598 258.203C206.055 306.314 193.059 250.105 147.819 265.236C102.579 280.366 142.974 410.094 59.1096 438.637C-24.7547 467.18 -44.8359 379.681 -85.5959 397.608" stroke="#EDAD48"/>
            <path opacity="0.925926" d="M615.161 93.906C594.232 113.5 594.431 173.214 550.558 192.51C447.84 237.686 470.435 77.9089 374.112 82.2167C277.79 86.5246 353.136 212.833 281.592 260.943C210.049 309.053 197.053 252.845 151.813 267.975C106.573 283.106 146.968 412.833 63.1037 441.377C-20.7605 469.92 -40.8418 382.421 -81.6018 400.348" stroke="#EFAF4A"/>
            <path opacity="0.962963" d="M619.156 96.6458C598.227 116.239 598.426 175.954 554.553 195.249C451.835 240.426 474.43 80.6486 378.107 84.9565C281.785 89.2643 357.131 215.573 285.587 263.683C214.044 311.793 201.048 255.584 155.808 270.715C110.568 285.846 150.963 415.573 67.0988 444.116C-16.7654 472.66 -36.8467 385.161 -77.6067 403.087" stroke="#F2B24B"/>
            <path d="M623.15 99.3858C602.221 118.979 602.42 178.694 558.547 197.989C455.829 243.166 478.424 83.3886 382.102 87.6965C285.779 92.0043 361.125 218.313 289.581 266.423C218.038 314.533 205.043 258.324 159.802 273.455C114.562 288.586 154.957 418.313 71.093 446.856C-12.7713 475.4 -32.8525 387.901 -73.6125 405.827" stroke="#F4B44D"/>
        </g>
    </g>
    <defs>
        <clipPath id="clip0_480_844">
            <rect width="360" height="465" fill="white"/>
        </clipPath>
    </defs>
</svg>
