<svg width="22" height="24" viewBox="0 0 22 24" fill="none" xmlns="http://www.w3.org/2000/svg">
    <path d="M21.2591 17.2434C20.6521 16.1978 19.7497 13.2392 19.7497 9.375C19.7497 7.05436 18.8278 4.82876 17.1869 3.18782C15.5459 1.54687 13.3204 0.625 10.9997 0.625C8.67906 0.625 6.45347 1.54687 4.81252 3.18782C3.17158 4.82876 2.24971 7.05436 2.24971 9.375C2.24971 13.2403 1.34627 16.1978 0.73924 17.2434C0.584223 17.5093 0.502043 17.8113 0.500987 18.119C0.49993 18.4267 0.580035 18.7293 0.733223 18.9962C0.886411 19.2631 1.10726 19.4848 1.37351 19.6391C1.63976 19.7934 1.94198 19.8748 2.24971 19.875H6.7133C6.91518 20.8628 7.45205 21.7506 8.2331 22.3882C9.01416 23.0258 9.99146 23.374 10.9997 23.374C12.008 23.374 12.9853 23.0258 13.7663 22.3882C14.5474 21.7506 15.0842 20.8628 15.2861 19.875H19.7497C20.0573 19.8746 20.3594 19.7931 20.6255 19.6387C20.8916 19.4843 21.1123 19.2625 21.2654 18.9957C21.4184 18.7288 21.4984 18.4263 21.4973 18.1187C21.4962 17.8111 21.4141 17.5092 21.2591 17.2434ZM10.9997 21.625C10.457 21.6248 9.92771 21.4565 9.48464 21.1431C9.04158 20.8297 8.70654 20.3867 8.52565 19.875H13.4738C13.2929 20.3867 12.9578 20.8297 12.5148 21.1431C12.0717 21.4565 11.5424 21.6248 10.9997 21.625ZM2.24971 18.125C3.0919 16.6769 3.99971 13.3212 3.99971 9.375C3.99971 7.51848 4.73721 5.73801 6.04996 4.42525C7.36272 3.1125 9.14319 2.375 10.9997 2.375C12.8562 2.375 14.6367 3.1125 15.9495 4.42525C17.2622 5.73801 17.9997 7.51848 17.9997 9.375C17.9997 13.318 18.9053 16.6736 19.7497 18.125H2.24971Z" fill="#F4B44D"/>
</svg>
