<svg width="16" height="16" viewBox="0 0 16 16" fill="none" xmlns="http://www.w3.org/2000/svg">
    <path d="M13.2654 6.265L8.26541 11.265C8.1951 11.3352 8.09979 11.3747 8.00041 11.3747C7.90104 11.3747 7.80573 11.3352 7.73541 11.265L2.73541 6.265C2.66917 6.19391 2.63311 6.09989 2.63482 6.00274C2.63654 5.90559 2.67589 5.8129 2.7446 5.74419C2.81331 5.67548 2.906 5.63613 3.00315 5.63441C3.1003 5.6327 3.19432 5.66876 3.26541 5.735L8.00041 10.4694L12.7354 5.735C12.8065 5.66876 12.9005 5.6327 12.9977 5.63441C13.0948 5.63613 13.1875 5.67548 13.2562 5.74419C13.3249 5.8129 13.3643 5.90559 13.366 6.00274C13.3677 6.09989 13.3317 6.19391 13.2654 6.265Z" fill="#9C9C9C"/>
</svg>
