<svg width="37" height="16" viewBox="0 0 37 16" fill="none" xmlns="http://www.w3.org/2000/svg">
    <rect x="1" y="0.5" width="35" height="15" rx="4" fill="url(#paint0_linear_685_1297)"/>
    <rect x="1" y="0.5" width="35" height="15" rx="4" stroke="url(#paint1_linear_685_1297)"/>
    <path d="M6.66 11.65C6.12 11.65 5.64167 11.5583 5.225 11.375C4.80833 11.1917 4.45667 10.935 4.17 10.605C3.88667 10.275 3.67 9.88 3.52 9.42C3.37333 8.96 3.3 8.45333 3.3 7.9C3.3 7.34333 3.37333 6.835 3.52 6.375C3.67 5.915 3.88667 5.52 4.17 5.19C4.45667 4.86 4.80833 4.605 5.225 4.425C5.64167 4.24167 6.12 4.15 6.66 4.15C7.07667 4.15 7.45667 4.205 7.8 4.315C8.14333 4.425 8.44833 4.58167 8.715 4.785C8.98167 4.98833 9.20833 5.235 9.395 5.525C9.58167 5.815 9.72667 6.13833 9.83 6.495L8.925 6.735C8.85167 6.46833 8.74833 6.22833 8.615 6.015C8.485 5.79833 8.325 5.615 8.135 5.465C7.94833 5.315 7.73167 5.2 7.485 5.12C7.23833 5.04 6.96333 5 6.66 5C6.26333 5 5.91333 5.07 5.61 5.21C5.31 5.35 5.05833 5.54833 4.855 5.805C4.65167 6.05833 4.49833 6.36333 4.395 6.72C4.29167 7.07667 4.24 7.47 4.24 7.9C4.24 8.33 4.29 8.72333 4.39 9.08C4.49333 9.43667 4.645 9.74333 4.845 10C5.04833 10.2533 5.3 10.45 5.6 10.59C5.90333 10.73 6.25667 10.8 6.66 10.8C6.96333 10.8 7.23833 10.76 7.485 10.68C7.73167 10.6 7.94833 10.485 8.135 10.335C8.325 10.185 8.485 10.0033 8.615 9.79C8.74833 9.57333 8.85167 9.33167 8.925 9.065L9.83 9.305C9.72667 9.66167 9.58167 9.985 9.395 10.275C9.20833 10.565 8.98167 10.8117 8.715 11.015C8.44833 11.2183 8.14333 11.375 7.8 11.485C7.45667 11.595 7.07667 11.65 6.66 11.65ZM10.9216 6.1H11.8116V8.7L14.0766 6.1H15.2316L12.8466 8.8L15.5116 11.5H14.2666L11.8116 8.9V11.5H10.9216V6.1ZM18.2168 11.65C17.8168 11.65 17.4551 11.58 17.1318 11.44C16.8118 11.3 16.5385 11.105 16.3118 10.855C16.0885 10.6017 15.9168 10.3 15.7968 9.95C15.6768 9.6 15.6168 9.215 15.6168 8.795C15.6168 8.37167 15.6768 7.98667 15.7968 7.64C15.9201 7.29 16.0935 6.99 16.3168 6.74C16.5435 6.49 16.8168 6.29667 17.1368 6.16C17.4601 6.02 17.8201 5.95 18.2168 5.95C18.6201 5.95 18.9818 6.02 19.3018 6.16C19.6251 6.29667 19.8985 6.49167 20.1218 6.745C20.3485 6.995 20.5218 7.295 20.6418 7.645C20.7618 7.99167 20.8218 8.375 20.8218 8.795C20.8218 9.21833 20.7601 9.605 20.6368 9.955C20.5168 10.305 20.3435 10.6067 20.1168 10.86C19.8935 11.11 19.6201 11.305 19.2968 11.445C18.9768 11.5817 18.6168 11.65 18.2168 11.65ZM18.2168 10.805C18.4901 10.805 18.7301 10.7583 18.9368 10.665C19.1435 10.5683 19.3168 10.4333 19.4568 10.26C19.5968 10.0833 19.7018 9.87167 19.7718 9.625C19.8418 9.375 19.8768 9.09833 19.8768 8.795C19.8768 8.485 19.8418 8.20667 19.7718 7.96C19.7018 7.71333 19.5968 7.50333 19.4568 7.33C19.3168 7.15667 19.1435 7.025 18.9368 6.935C18.7301 6.84167 18.4901 6.795 18.2168 6.795C17.9435 6.795 17.7018 6.84167 17.4918 6.935C17.2851 7.02833 17.1135 7.16333 16.9768 7.34C16.8401 7.51333 16.7368 7.72333 16.6668 7.97C16.5968 8.21333 16.5618 8.48833 16.5618 8.795C16.5618 9.105 16.5968 9.38333 16.6668 9.63C16.7401 9.87667 16.8468 10.0883 16.9868 10.265C17.1268 10.4383 17.2985 10.5717 17.5018 10.665C17.7085 10.7583 17.9468 10.805 18.2168 10.805ZM21.9227 13.9V6.1H22.8127V6.945C22.986 6.63167 23.2193 6.38833 23.5127 6.215C23.8093 6.03833 24.1777 5.95 24.6177 5.95C24.991 5.95 25.3293 6.02 25.6327 6.16C25.936 6.3 26.1943 6.49667 26.4077 6.75C26.621 7 26.7843 7.3 26.8977 7.65C27.0143 7.99667 27.0727 8.37833 27.0727 8.795C27.0727 9.21833 27.0143 9.605 26.8977 9.955C26.781 10.305 26.616 10.6067 26.4027 10.86C26.1893 11.11 25.931 11.305 25.6277 11.445C25.3243 11.5817 24.9877 11.65 24.6177 11.65C24.1777 11.65 23.8093 11.5617 23.5127 11.385C23.2193 11.2083 22.986 10.965 22.8127 10.655V13.9H21.9227ZM24.4677 10.805C24.7477 10.805 24.991 10.7567 25.1977 10.66C25.4043 10.56 25.576 10.4217 25.7127 10.245C25.8527 10.0683 25.956 9.85667 26.0227 9.61C26.0927 9.36333 26.1277 9.09167 26.1277 8.795C26.1277 8.49167 26.0927 8.21667 26.0227 7.97C25.9527 7.72333 25.8477 7.51333 25.7077 7.34C25.571 7.16667 25.3993 7.03333 25.1927 6.94C24.986 6.84333 24.7443 6.795 24.4677 6.795C24.1843 6.795 23.9393 6.845 23.7327 6.945C23.526 7.04167 23.3543 7.17833 23.2177 7.355C23.081 7.52833 22.9793 7.73833 22.9127 7.985C22.846 8.22833 22.8127 8.49833 22.8127 8.795C22.8127 9.09833 22.8477 9.375 22.9177 9.625C22.9877 9.87167 23.091 10.0833 23.2277 10.26C23.3677 10.4333 23.541 10.5683 23.7477 10.665C23.9543 10.7583 24.1943 10.805 24.4677 10.805ZM30.4727 11.65C30.0727 11.65 29.711 11.58 29.3877 11.44C29.0677 11.3 28.7943 11.105 28.5677 10.855C28.3443 10.6017 28.1727 10.3 28.0527 9.95C27.9327 9.6 27.8727 9.215 27.8727 8.795C27.8727 8.37167 27.9327 7.98667 28.0527 7.64C28.176 7.29 28.3493 6.99 28.5727 6.74C28.7993 6.49 29.0727 6.29667 29.3927 6.16C29.716 6.02 30.076 5.95 30.4727 5.95C30.876 5.95 31.2377 6.02 31.5577 6.16C31.881 6.29667 32.1543 6.49167 32.3777 6.745C32.6043 6.995 32.7777 7.295 32.8977 7.645C33.0177 7.99167 33.0777 8.375 33.0777 8.795C33.0777 9.21833 33.016 9.605 32.8927 9.955C32.7727 10.305 32.5993 10.6067 32.3727 10.86C32.1493 11.11 31.876 11.305 31.5527 11.445C31.2327 11.5817 30.8727 11.65 30.4727 11.65ZM30.4727 10.805C30.746 10.805 30.986 10.7583 31.1927 10.665C31.3993 10.5683 31.5727 10.4333 31.7127 10.26C31.8527 10.0833 31.9577 9.87167 32.0277 9.625C32.0977 9.375 32.1327 9.09833 32.1327 8.795C32.1327 8.485 32.0977 8.20667 32.0277 7.96C31.9577 7.71333 31.8527 7.50333 31.7127 7.33C31.5727 7.15667 31.3993 7.025 31.1927 6.935C30.986 6.84167 30.746 6.795 30.4727 6.795C30.1993 6.795 29.9577 6.84167 29.7477 6.935C29.541 7.02833 29.3693 7.16333 29.2327 7.34C29.096 7.51333 28.9927 7.72333 28.9227 7.97C28.8527 8.21333 28.8177 8.48833 28.8177 8.795C28.8177 9.105 28.8527 9.38333 28.9227 9.63C28.996 9.87667 29.1027 10.0883 29.2427 10.265C29.3827 10.4383 29.5543 10.5717 29.7577 10.665C29.9643 10.7583 30.2027 10.805 30.4727 10.805Z" fill="#231F25"/>
    <defs>
        <linearGradient id="paint0_linear_685_1297" x1="22.4346" y1="-1.6628" x2="4.43107" y2="14.7807" gradientUnits="userSpaceOnUse">
            <stop stop-color="#95703B"/>
            <stop offset="0.211538" stop-color="#F4CE71"/>
            <stop offset="0.509615" stop-color="#FDFBC7"/>
            <stop offset="0.793269" stop-color="#F4CE71"/>
            <stop offset="1" stop-color="#95703B"/>
        </linearGradient>
        <linearGradient id="paint1_linear_685_1297" x1="36.2995" y1="0.368741" x2="30.2047" y2="23.2612" gradientUnits="userSpaceOnUse">
            <stop stop-color="#C48B2E"/>
            <stop offset="0.25" stop-color="#F9BF6D"/>
            <stop offset="0.379808" stop-color="#FDECC7"/>
            <stop offset="0.557692" stop-color="#F9BF6D"/>
            <stop offset="1" stop-color="#C48A2E"/>
        </linearGradient>
    </defs>
</svg>
