<svg width="18" height="17" viewBox="0 0 18 17" fill="none" xmlns="http://www.w3.org/2000/svg">
    <path d="M17.5068 1.04607C17.4099 0.962454 17.2921 0.906842 17.166 0.885228C17.0399 0.863614 16.9103 0.876818 16.7911 0.923416L0.958315 7.11951C0.733928 7.20676 0.543958 7.36455 0.417006 7.56911C0.290053 7.77367 0.23299 8.01394 0.254405 8.25374C0.27582 8.49354 0.374556 8.71989 0.535748 8.89872C0.696939 9.07755 0.911862 9.19918 1.14816 9.24529L5.2505 10.0508V14.625C5.24969 14.8741 5.32374 15.1178 5.46303 15.3244C5.60233 15.5309 5.80046 15.6909 6.03175 15.7836C6.26268 15.8779 6.51664 15.9005 6.76061 15.8485C7.00458 15.7966 7.22727 15.6724 7.39972 15.4922L9.37785 13.4406L12.5161 16.1875C12.7425 16.3883 13.0346 16.4995 13.3372 16.5C13.4698 16.4999 13.6016 16.479 13.7278 16.4383C13.9341 16.3728 14.1195 16.2545 14.2658 16.0951C14.412 15.9357 14.514 15.7407 14.5614 15.5297L17.7325 1.73435C17.7609 1.60994 17.7549 1.48015 17.7151 1.3589C17.6753 1.23765 17.6033 1.12951 17.5068 1.04607ZM12.7302 3.85857L5.73097 8.87107L1.85597 8.11092L12.7302 3.85857ZM6.5005 14.625V10.9156L8.43722 12.614L6.5005 14.625ZM13.3388 15.25L6.87941 9.58592L16.1763 2.92263L13.3388 15.25Z" fill="#F4B44D"/>
</svg>
